<svg width="24" height="24" viewBox="0 0 24 24" fill="none" xmlns="http://www.w3.org/2000/svg">
<path fill-rule="evenodd" clip-rule="evenodd" d="M5.00846 10.6946C5.00846 10.076 5.01591 9.45733 5.02339 8.83581L5.02339 8.8358C5.02719 8.52071 5.03099 8.20488 5.03384 7.88794C5.03384 4.48264 7.16556 1.99982 10.1094 1.99982H13.8906C16.8344 1.99982 18.9662 4.48264 18.9662 7.88794C18.9915 9.25202 19 10.6161 19 11.99C19 13.3639 18.9915 14.7476 18.9662 16.1117C18.9662 19.517 16.8344 21.9998 13.8906 21.9998H10.1094C7.16556 21.9998 5.03384 19.517 5.03384 16.1019C5.01692 14.8163 5 13.5013 5 12.1666L5.00846 10.6946ZM13.28 19.6401V19.8001C13.28 20.4737 12.7168 21.0001 12 21.0001C11.3003 21.0001 10.72 20.4737 10.72 19.8001V19.6401C10.72 18.9841 11.3003 18.4401 12 18.4401C12.7168 18.4401 13.28 18.9841 13.28 19.6401ZM7.01671 8.44346C7.01136 8.84744 7.00604 9.24956 7.00604 9.65168L7 10.6085C7 11.476 7.01208 12.3308 7.02417 13.1664C7.02417 15.3862 8.54683 17.0001 10.6495 17.0001H13.3505C15.4532 17.0001 16.9758 15.3862 16.9758 13.1728C16.994 12.2861 17 11.3867 17 10.4937C17 9.60065 16.994 8.714 16.9758 7.82734C16.9758 5.6139 15.4532 4.00006 13.3505 4.00006H10.6495C8.54683 4.00006 7.02417 5.6139 7.02417 7.82734C7.02214 8.03336 7.01942 8.23865 7.01671 8.44346Z" fill="white"/>
</svg>
