<svg width="448" height="196" viewBox="0 0 448 196" fill="none" xmlns="http://www.w3.org/2000/svg">
<path d="M96 192C111.464 192 124 179.464 124 164C124 148.536 111.464 136 96 136C80.536 136 68 148.536 68 164C68 175.36 74.7654 185.14 84.487 189.531C84.5 189.228 84.5147 188.95 84.5273 188.712C84.5444 188.388 84.5577 188.136 84.5577 187.995C84.5577 187.154 85.1298 182.981 85.1298 182.981L88.6298 168.611C88.0913 167.736 87.6875 165.885 87.6875 164.471C87.6875 157.942 91.3221 156.529 93.5433 156.529C96.3702 156.529 97.0096 159.591 97.0096 161.846C97.0096 163.039 96.391 164.906 95.7543 166.827C95.0796 168.863 94.3846 170.96 94.3846 172.38C94.3846 175.139 97.1106 176.519 98.9952 176.519C103.976 176.519 108.553 170.26 108.553 164C108.553 157.74 105.625 150.168 96.0337 150.168C86.4423 150.168 82.1346 157.471 82.1346 163.058C82.1346 166.827 83.5481 169.587 84.2548 170.058C84.4567 170.237 84.8 170.791 84.5577 171.572C84.3154 172.353 83.8734 174.096 83.6827 174.87C83.6603 175.05 83.4471 175.355 82.774 175.139C81.9327 174.87 76.5817 171.505 76.5817 163.058C76.5817 154.611 83.2115 144.784 96.0337 144.784C108.856 144.784 115.418 153.399 115.418 164C115.418 174.601 106.837 181.365 100.308 181.365C95.0846 181.365 93.0385 179.032 92.6683 177.865L90.6827 185.437C90.2139 186.694 89.3392 188.951 88.2607 190.917C90.7187 191.622 93.3152 192 96 192Z" fill="#BB0F23"/>
<circle cx="352" cy="164" r="28" fill="url(#paint0_linear_17_140)"/>
<path d="M365.973 152.418C366.222 150.807 364.691 149.535 363.258 150.164L334.73 162.69C333.702 163.141 333.778 164.697 334.843 165.036L340.726 166.909C341.849 167.267 343.065 167.082 344.046 166.405L357.31 157.241C357.71 156.964 358.146 157.533 357.804 157.885L348.256 167.729C347.33 168.684 347.514 170.302 348.628 171.001L359.318 177.705C360.517 178.456 362.059 177.701 362.284 176.252L365.973 152.418Z" fill="white"/>
<path fill-rule="evenodd" clip-rule="evenodd" d="M224 194C239.464 194 252 181.464 252 166C252 150.536 239.464 138 224 138C208.536 138 196 150.536 196 166C196 171.022 197.322 175.735 199.637 179.81L196 194L210.63 190.608C214.603 192.771 219.158 194 224 194ZM224 189.692C237.085 189.692 247.692 179.085 247.692 166C247.692 152.915 237.085 142.308 224 142.308C210.915 142.308 200.308 152.915 200.308 166C200.308 171.052 201.889 175.735 204.584 179.58L202.462 187.538L210.56 185.514C214.379 188.149 219.009 189.692 224 189.692Z" fill="#BFC8D0"/>
<path d="M248 164C248 177.255 237.255 188 224 188C218.944 188 214.254 186.437 210.385 183.767L202.182 185.818L204.332 177.757C201.602 173.861 200 169.118 200 164C200 150.745 210.745 140 224 140C237.255 140 248 150.745 248 164Z" fill="url(#paint1_linear_17_140)"/>
<path fill-rule="evenodd" clip-rule="evenodd" d="M224 192C239.464 192 252 179.464 252 164C252 148.536 239.464 136 224 136C208.536 136 196 148.536 196 164C196 169.022 197.322 173.735 199.637 177.81L196 192L210.63 188.608C214.603 190.771 219.158 192 224 192ZM224 187.692C237.085 187.692 247.692 177.085 247.692 164C247.692 150.915 237.085 140.308 224 140.308C210.915 140.308 200.308 150.915 200.308 164C200.308 169.052 201.889 173.735 204.584 177.58L202.462 185.538L210.56 183.514C214.379 186.149 219.009 187.692 224 187.692Z" fill="white"/>
<path d="M217 151C216.334 149.663 215.313 149.781 214.281 149.781C212.438 149.781 209.562 151.99 209.562 156.1C209.563 159.469 211.047 163.156 216.049 168.672C220.876 173.996 227.219 176.75 232.484 176.656C237.75 176.562 238.833 172.031 238.833 170.501C238.833 169.823 238.412 169.484 238.123 169.392C236.328 168.531 233.019 166.927 232.266 166.625C231.513 166.324 231.119 166.731 230.875 166.953C230.192 167.604 228.839 169.522 228.375 169.953C227.912 170.385 227.221 170.166 226.933 170.003C225.875 169.579 223.006 168.302 220.719 166.085C217.891 163.344 217.725 162.401 217.192 161.561C216.766 160.889 217.078 160.477 217.234 160.297C217.844 159.594 218.685 158.508 219.063 157.969C219.44 157.429 219.14 156.61 218.961 156.1C218.188 153.906 217.533 152.07 217 151Z" fill="white"/>
<circle cx="160" cy="36" r="28" fill="url(#paint2_linear_17_140)"/>
<path d="M170.427 44.5631L171.671 36.6602H163.89V31.534C163.89 29.3714 164.975 27.2621 168.46 27.2621H172V20.534C172 20.534 168.789 20 165.721 20C159.31 20 155.123 23.7859 155.123 30.6369V36.6602H148V44.5631H155.123V63.669C156.553 63.8879 158.016 64 159.507 64C160.997 64 162.46 63.8879 163.89 63.669V44.5631H170.427Z" fill="white"/>
<rect x="260" y="8" width="56" height="56" rx="28" fill="#1275B1"/>
<path d="M281.237 23.3843C281.237 25.2534 279.617 26.7686 277.619 26.7686C275.62 26.7686 274 25.2534 274 23.3843C274 21.5152 275.62 20 277.619 20C279.617 20 281.237 21.5152 281.237 23.3843Z" fill="white"/>
<path d="M274.495 29.2562H280.68V48H274.495V29.2562Z" fill="white"/>
<path d="M290.639 29.2562H284.454V48H290.639C290.639 48 290.639 42.0992 290.639 38.4097C290.639 36.1952 291.395 33.9711 294.412 33.9711C297.822 33.9711 297.802 36.8691 297.786 39.1142C297.765 42.0489 297.814 45.0437 297.814 48H304V38.1074C303.948 31.7908 302.302 28.8802 296.887 28.8802C293.671 28.8802 291.677 30.3401 290.639 31.661V29.2562Z" fill="white"/>
<rect x="388" y="8" width="56" height="56" rx="6" fill="url(#paint3_radial_17_140)"/>
<rect x="388" y="8" width="56" height="56" rx="6" fill="url(#paint4_radial_17_140)"/>
<rect x="388" y="8" width="56" height="56" rx="6" fill="url(#paint5_radial_17_140)"/>
<path d="M430 25C430 26.6569 428.657 28 427 28C425.343 28 424 26.6569 424 25C424 23.3431 425.343 22 427 22C428.657 22 430 23.3431 430 25Z" fill="white"/>
<path fill-rule="evenodd" clip-rule="evenodd" d="M416 46C421.523 46 426 41.5228 426 36C426 30.4772 421.523 26 416 26C410.477 26 406 30.4772 406 36C406 41.5228 410.477 46 416 46ZM416 42C419.314 42 422 39.3137 422 36C422 32.6863 419.314 30 416 30C412.686 30 410 32.6863 410 36C410 39.3137 412.686 42 416 42Z" fill="white"/>
<path fill-rule="evenodd" clip-rule="evenodd" d="M396 35.2C396 28.4794 396 25.1191 397.308 22.5521C398.458 20.2942 400.294 18.4584 402.552 17.3079C405.119 16 408.479 16 415.2 16H416.8C423.521 16 426.881 16 429.448 17.3079C431.706 18.4584 433.542 20.2942 434.692 22.5521C436 25.1191 436 28.4794 436 35.2V36.8C436 43.5206 436 46.8809 434.692 49.4479C433.542 51.7058 431.706 53.5416 429.448 54.6921C426.881 56 423.521 56 416.8 56H415.2C408.479 56 405.119 56 402.552 54.6921C400.294 53.5416 398.458 51.7058 397.308 49.4479C396 46.8809 396 43.5206 396 36.8V35.2ZM415.2 20H416.8C420.226 20 422.555 20.0031 424.356 20.1502C426.11 20.2935 427.006 20.5532 427.632 20.8719C429.137 21.6389 430.361 22.8628 431.128 24.3681C431.447 24.9937 431.707 25.8905 431.85 27.6442C431.997 29.4445 432 31.7737 432 35.2V36.8C432 40.2263 431.997 42.5555 431.85 44.3558C431.707 46.1095 431.447 47.0063 431.128 47.6319C430.361 49.1372 429.137 50.3611 427.632 51.1281C427.006 51.4468 426.11 51.7065 424.356 51.8498C422.555 51.9969 420.226 52 416.8 52H415.2C411.774 52 409.445 51.9969 407.644 51.8498C405.89 51.7065 404.994 51.4468 404.368 51.1281C402.863 50.3611 401.639 49.1372 400.872 47.6319C400.553 47.0063 400.293 46.1095 400.15 44.3558C400.003 42.5555 400 40.2263 400 36.8V35.2C400 31.7737 400.003 29.4445 400.15 27.6442C400.293 25.8905 400.553 24.9937 400.872 24.3681C401.639 22.8628 402.863 21.6389 404.368 20.8719C404.994 20.5532 405.89 20.2935 407.644 20.1502C409.445 20.0031 411.774 20 415.2 20Z" fill="white"/>
<path fill-rule="evenodd" clip-rule="evenodd" d="M32 56.3583C46.3594 56.3583 58 45.0852 58 31.1791C58 17.2731 46.3594 6 32 6C17.6406 6 6 17.2731 6 31.1791C6 38.7424 9.44337 45.5268 14.8947 50.1423V55.2376C14.8947 57.229 16.9232 58.5647 18.7318 57.7642L24.386 55.2614C26.7941 55.9746 29.3508 56.3583 32 56.3583Z" fill="url(#paint6_linear_17_140)"/>
<path d="M25.774 25.8266L18.2345 36.1379C17.4261 37.2435 18.8799 38.5716 19.9867 37.7387L26.4246 32.8937C27.0799 32.4006 27.9984 32.3939 28.6614 32.8776L34.3871 37.0544C35.4851 37.8554 37.0544 37.6251 37.8539 36.5455L45.761 25.8681C46.581 24.7608 45.1161 23.4219 44.0076 24.2657L37.2013 29.4472C36.5458 29.9462 35.6224 29.9553 34.9564 29.4695L29.2493 25.3062C28.1467 24.5018 26.5701 24.7379 25.774 25.8266Z" fill="white"/>
<defs>
<linearGradient id="paint0_linear_17_140" x1="352" y1="136" x2="352" y2="192" gradientUnits="userSpaceOnUse">
<stop stop-color="#37BBFE"/>
<stop offset="1" stop-color="#007DBB"/>
</linearGradient>
<linearGradient id="paint1_linear_17_140" x1="245" y1="146" x2="200" y2="188" gradientUnits="userSpaceOnUse">
<stop stop-color="#5BD066"/>
<stop offset="1" stop-color="#27B43E"/>
</linearGradient>
<linearGradient id="paint2_linear_17_140" x1="160" y1="8" x2="160" y2="63.8339" gradientUnits="userSpaceOnUse">
<stop stop-color="#18ACFE"/>
<stop offset="1" stop-color="#0163E0"/>
</linearGradient>
<radialGradient id="paint3_radial_17_140" cx="0" cy="0" r="1" gradientUnits="userSpaceOnUse" gradientTransform="translate(408 50) rotate(-55.3758) scale(51.0392)">
<stop stop-color="#B13589"/>
<stop offset="0.79309" stop-color="#C62F94"/>
<stop offset="1" stop-color="#8A3AC8"/>
</radialGradient>
<radialGradient id="paint4_radial_17_140" cx="0" cy="0" r="1" gradientUnits="userSpaceOnUse" gradientTransform="translate(406 66) rotate(-65.1363) scale(45.1885)">
<stop stop-color="#E0E8B7"/>
<stop offset="0.444662" stop-color="#FB8A2E"/>
<stop offset="0.71474" stop-color="#E2425C"/>
<stop offset="1" stop-color="#E2425C" stop-opacity="0"/>
</radialGradient>
<radialGradient id="paint5_radial_17_140" cx="0" cy="0" r="1" gradientUnits="userSpaceOnUse" gradientTransform="translate(385 10) rotate(-8.1301) scale(77.7817 16.6367)">
<stop offset="0.156701" stop-color="#406ADC"/>
<stop offset="0.467799" stop-color="#6A45BE"/>
<stop offset="1" stop-color="#6A45BE" stop-opacity="0"/>
</radialGradient>
<linearGradient id="paint6_linear_17_140" x1="32" y1="6" x2="23.6573" y2="57.7166" gradientUnits="userSpaceOnUse">
<stop stop-color="#00B1FF"/>
<stop offset="1" stop-color="#006BFF"/>
</linearGradient>
</defs>
</svg>
