<svg width="781" height="321" viewBox="0 0 781 321" fill="none" xmlns="http://www.w3.org/2000/svg">
<path d="M253.53 3.91894L251.457 11.6085L257.675 16.8312L254.74 25.2858L263.074 28.8105L260.177 38.5142L267.453 42.7064L266.196 52.4998L262.488 52.0236L263.429 44.701L255.751 40.2785L258.538 30.9495L250.06 27.3663L253.3 18.0373L247.23 12.9356L249.15 5.80816L244.466 3.29051L246.235 0L253.53 3.91894Z" fill="#9BC1F9"/>
<path d="M131.961 206.436C132.898 207.673 132.827 209.402 131.793 210.557C129.763 212.825 126.445 215.569 122.281 217.595C116.187 220.562 109.2 221.456 102.612 219.184C98.4936 217.763 94.5747 214.875 91.6316 210.944L88.0327 212.696C86.811 213.294 85.3355 212.782 84.7383 211.561L84.6914 211.467C84.0942 210.245 84.6056 208.77 85.8273 208.173L88.7821 206.732C88.1966 205.76 87.7868 205.163 87.5175 204.609C87.0686 203.688 86.6197 202.532 86.2215 201.244L83.1769 202.727C81.9552 203.325 80.4797 202.813 79.8825 201.591C79.2853 200.37 79.7967 198.894 81.0184 198.297L84.7109 196.498C83.657 191.759 83.8444 186.985 85.2652 182.867C87.6775 175.865 92.9704 170.548 99.3367 167.445C103.049 165.638 106.175 164.912 108.732 164.643C110.512 164.455 112.12 165.708 112.37 167.48L112.378 167.535C112.639 169.369 111.343 171.052 109.509 171.298C107.421 171.579 104.981 172.235 102.21 173.581C98.1501 175.56 94.7152 178.831 93.0172 183.542C92.0687 186.287 91.8072 189.499 92.7401 192.587L113.51 182.469C114.731 181.872 116.207 182.383 116.804 183.605C117.401 184.827 116.89 186.302 115.668 186.899L93.9775 197.466C94.3795 198.527 94.7815 199.585 95.0977 200.233C95.5037 201.065 95.9057 201.896 96.538 202.958L118.276 192.368C119.525 191.759 121.031 192.278 121.64 193.527C122.249 194.776 121.73 196.283 120.481 196.892L99.6685 207.033C101.62 209.394 104.036 211.073 106.507 211.924C111.402 213.536 115.727 213.028 120.341 210.78C123.155 209.41 125.438 207.677 127.144 206.049C128.534 204.71 130.79 204.89 131.961 206.436Z" fill="#86B1F2"/>
<path d="M64.8196 272.055L54.0738 273.148L50.4085 256.047L34.4985 255.704L29.6623 243.357L23.4131 245.805L29.877 262.32L44.9556 262.644L48.7691 280.431L64.9406 278.792L64.8196 272.055Z" fill="#50BFA5"/>
<path d="M165.834 168.421C165.685 167.999 162.083 161.84 157.434 155.15C135.809 123.997 103.747 93.9728 66.1465 95.1009L66.1191 94.8706C83.1182 93.0048 99.7776 97.5326 114.399 105.601C138.522 118.607 162.028 143.385 174.885 162.433L165.834 168.421Z" fill="#F7CC7F"/>
<path d="M74.4879 112.342L71.9429 94.8238L84.9332 82.7976C86.4126 81.4275 85.6788 78.9567 83.692 78.6132L66.2441 75.6194L58.8199 59.5493C57.9729 57.7187 55.3967 57.6523 54.4599 59.4361L46.22 75.1041L28.6394 77.2002C26.637 77.4383 25.7782 79.8701 27.1834 81.3143L39.5375 93.9923L36.0986 111.358C35.7083 113.337 37.7536 114.906 39.5609 114.013L55.4357 106.179L70.889 114.817C72.6533 115.8 74.7768 114.337 74.4879 112.342Z" fill="#F7CC7F"/>
<path d="M0.157005 171.926L4.25941 164.998L0.875216 157.691C0.488786 156.859 1.22652 155.946 2.12038 156.145L9.97779 157.905L15.8835 152.429C16.5549 151.805 17.6517 152.222 17.7376 153.136L18.491 161.153L25.5248 165.076C26.325 165.525 26.2664 166.696 25.4233 167.059L18.0304 170.252L16.4729 178.152C16.2973 179.054 15.1614 179.358 14.5564 178.671L9.23225 172.629L1.23824 173.589C0.332662 173.698 -0.311395 172.715 0.157005 171.926Z" fill="#466EB6"/>
<path d="M230.992 62.27L230.391 52.4141L221.191 52.3672L220.172 42.683L211.382 41.555L209.434 34.4353L205.827 35.4229L208.435 44.947L216.764 46.0165L217.826 56.0871L226.874 56.1339L227.42 65.0648L230.992 62.27Z" fill="#F48C7F"/>
<path d="M498.465 98.7858C498.598 98.4072 501.826 92.8918 505.987 86.9002C525.355 58.9953 554.076 32.1013 587.758 33.1123L587.781 32.9054C572.554 31.2348 557.632 35.2903 544.536 42.5193C522.927 54.1668 501.877 76.3651 490.358 93.4266L498.465 98.7858Z" fill="#F7CC7F"/>
<path d="M580.287 48.5538L582.566 32.8624L570.93 22.0892C569.603 20.8636 570.263 18.6465 572.043 18.342L587.672 15.6604L594.323 1.26493C595.08 -0.374467 597.391 -0.433015 598.23 1.16345L605.611 15.1998L621.357 17.0773C623.153 17.292 623.922 19.4701 622.661 20.7621L611.595 32.1208L614.675 47.6756C615.026 49.4477 613.192 50.8529 611.572 50.0527L597.352 43.0345L583.511 50.7709C581.93 51.6492 580.029 50.3415 580.287 48.5538Z" fill="#F7CC7F"/>
<path d="M698.05 167.648L693.835 178.156L676.18 173.242L668.123 187.844L654.309 186.326L653.541 193.321L672.015 195.35L679.65 181.509L698.019 186.623L704.362 170.814L698.05 167.648Z" fill="#466EB6"/>
<path d="M597.41 162.921L604.159 165.146C604.159 165.146 614.858 161.68 615.912 159.498C616.966 157.316 617.263 152.027 618.785 151.883C620.307 151.738 623.25 152.234 623.949 155.856C624.457 158.483 620.608 166.083 621.209 166.891C621.584 167.399 625.429 168.788 628.251 169.756C630.109 170.392 631.448 172.028 631.732 173.999V174.007C631.924 175.338 631.17 176.638 629.925 177.118L627.985 177.867L628.606 179.874C629.066 181.365 628.251 182.969 626.775 183.465L625.272 183.968L625.753 185.19C626.369 186.763 625.499 188.547 623.883 189.015L622.571 189.398L622.626 189.749C622.848 191.209 621.935 192.614 620.522 192.985L619.218 193.324L601.247 187.395C599.565 186.841 598.012 185.939 596.692 184.749L590.724 181.599C590.084 181.259 589.787 180.494 590.029 179.796L595.564 163.862C595.826 163.089 596.649 162.672 597.41 162.921Z" fill="#FAE0B2"/>
<path d="M778.042 299.148L768.201 298.352L766.859 307.454L757.128 307.099L754.77 315.643L747.447 316.568L747.916 320.277L757.709 319.039L759.942 310.944L770.067 311.311L771.386 302.36L780.305 303.079L778.042 299.148Z" fill="#F48C7F"/>
<path d="M486.7 55.6384L486.22 61.6339L476.485 61.9228L474.702 70.6038L467.453 72.0129L468.167 75.6781L477.859 73.7967L479.553 65.5724L489.675 65.2718L490.401 56.2473L486.7 55.6384Z" fill="#50BFA5"/>
<path d="M684.139 56.6219C695.369 67.3912 695.74 85.2216 684.97 96.4515C674.201 107.677 656.371 108.052 645.141 97.2829C633.915 86.5136 633.54 68.6832 644.309 57.4533C655.083 46.2234 672.913 45.8526 684.139 56.6219Z" fill="#FFF3D9"/>
<path d="M683.659 80.1707L671.672 83.8555L667.913 95.8192C667.608 96.7872 666.328 96.9824 665.747 96.1549L658.537 85.893L646 86.014C644.989 86.0257 644.403 84.8664 645.012 84.0584L652.542 74.0308L648.552 62.1412C648.228 61.181 649.15 60.2676 650.106 60.5955L661.968 64.6589L672.043 57.1918C672.858 56.5868 674.01 57.1801 673.994 58.195L673.795 70.7325L684.01 78.0044C684.834 78.5938 684.627 79.8741 683.659 80.1707Z" fill="#FED333"/>
<path d="M763.954 201.81L770.558 201.412C771.273 201.369 771.651 200.444 771.194 199.847L766.987 194.339L768.802 187.329C768.997 186.572 768.322 185.908 767.654 186.212L761.506 188.999L756.022 185.065C755.429 184.639 754.633 185.155 754.679 185.935L755.089 193.164L749.886 197.743C749.324 198.239 749.511 199.218 750.202 199.402L756.604 201.08L758.872 207.845C759.118 208.579 760.027 208.668 760.413 207.997L763.954 201.81Z" fill="#F47458"/>
</svg>
